<mxfile host="app.diagrams.net" modified="2023-03-25T13:40:37.792Z" agent="Mozilla/5.0 (Windows NT 10.0; Win64; x64) AppleWebKit/537.36 (KHTML, like Gecko) Chrome/111.0.0.0 Safari/537.36" etag="lT6LLL9q-oSQIrNFzCnd" version="21.1.0" type="device">
  <diagram id="C5RBs43oDa-KdzZeNtuy" name="Page-1">
    <mxGraphModel dx="673" dy="736" grid="1" gridSize="10" guides="1" tooltips="1" connect="1" arrows="1" fold="1" page="1" pageScale="1" pageWidth="827" pageHeight="1169" math="0" shadow="0">
      <root>
        <mxCell id="WIyWlLk6GJQsqaUBKTNV-0" />
        <mxCell id="WIyWlLk6GJQsqaUBKTNV-1" parent="WIyWlLk6GJQsqaUBKTNV-0" />
        <mxCell id="7VQik0wUS9VQWqGono5E-9" style="edgeStyle=orthogonalEdgeStyle;rounded=0;orthogonalLoop=1;jettySize=auto;html=1;dashed=1;curved=1;endArrow=block;endFill=1;entryX=0.513;entryY=0.102;entryDx=0;entryDy=0;entryPerimeter=0;" edge="1" parent="WIyWlLk6GJQsqaUBKTNV-1" source="7VQik0wUS9VQWqGono5E-56" target="7VQik0wUS9VQWqGono5E-11">
          <mxGeometry relative="1" as="geometry">
            <Array as="points">
              <mxPoint x="1086" y="200" />
              <mxPoint x="1090" y="200" />
              <mxPoint x="1090" y="291" />
              <mxPoint x="1089" y="291" />
            </Array>
          </mxGeometry>
        </mxCell>
        <mxCell id="7VQik0wUS9VQWqGono5E-11" value="" style="ellipse;shape=cloud;whiteSpace=wrap;html=1;" vertex="1" parent="WIyWlLk6GJQsqaUBKTNV-1">
          <mxGeometry x="986" y="270" width="200" height="230" as="geometry" />
        </mxCell>
        <mxCell id="7VQik0wUS9VQWqGono5E-19" value="SellerDTO" style="html=1;whiteSpace=wrap;fillColor=#ffe6cc;strokeColor=#d79b00;" vertex="1" parent="WIyWlLk6GJQsqaUBKTNV-1">
          <mxGeometry x="1476" y="60" width="120" height="60" as="geometry" />
        </mxCell>
        <mxCell id="7VQik0wUS9VQWqGono5E-20" value="ShopPermissionDTO" style="html=1;whiteSpace=wrap;fillColor=#ffe6cc;strokeColor=#d79b00;" vertex="1" parent="WIyWlLk6GJQsqaUBKTNV-1">
          <mxGeometry x="1476" y="140" width="120" height="60" as="geometry" />
        </mxCell>
        <mxCell id="7VQik0wUS9VQWqGono5E-21" value="ShopHandlerDTO" style="html=1;whiteSpace=wrap;fillColor=#ffe6cc;strokeColor=#d79b00;" vertex="1" parent="WIyWlLk6GJQsqaUBKTNV-1">
          <mxGeometry x="1476" y="220" width="120" height="60" as="geometry" />
        </mxCell>
        <mxCell id="7VQik0wUS9VQWqGono5E-30" value="Models" style="shape=umlFrame;whiteSpace=wrap;html=1;pointerEvents=0;width=80;height=20;" vertex="1" parent="WIyWlLk6GJQsqaUBKTNV-1">
          <mxGeometry x="1436" y="20" width="200" height="470" as="geometry" />
        </mxCell>
        <mxCell id="7VQik0wUS9VQWqGono5E-31" value="Controllers" style="shape=umlFrame;whiteSpace=wrap;html=1;pointerEvents=0;width=80;height=20;" vertex="1" parent="WIyWlLk6GJQsqaUBKTNV-1">
          <mxGeometry x="1210" y="20" width="200" height="470" as="geometry" />
        </mxCell>
        <mxCell id="7VQik0wUS9VQWqGono5E-32" style="edgeStyle=orthogonalEdgeStyle;rounded=0;orthogonalLoop=1;jettySize=auto;html=1;endArrow=block;endFill=1;" edge="1" parent="WIyWlLk6GJQsqaUBKTNV-1" source="7VQik0wUS9VQWqGono5E-33" target="7VQik0wUS9VQWqGono5E-19">
          <mxGeometry relative="1" as="geometry" />
        </mxCell>
        <mxCell id="7VQik0wUS9VQWqGono5E-33" value="UserController" style="html=1;whiteSpace=wrap;fillColor=#ffe6cc;strokeColor=#d79b00;" vertex="1" parent="WIyWlLk6GJQsqaUBKTNV-1">
          <mxGeometry x="1256" y="60" width="120" height="60" as="geometry" />
        </mxCell>
        <mxCell id="7VQik0wUS9VQWqGono5E-39" style="edgeStyle=orthogonalEdgeStyle;rounded=0;orthogonalLoop=1;jettySize=auto;html=1;endArrow=block;endFill=1;exitX=1;exitY=0.5;exitDx=0;exitDy=0;" edge="1" parent="WIyWlLk6GJQsqaUBKTNV-1" source="7VQik0wUS9VQWqGono5E-33" target="7VQik0wUS9VQWqGono5E-21">
          <mxGeometry relative="1" as="geometry">
            <mxPoint x="1386" y="250" as="sourcePoint" />
            <Array as="points">
              <mxPoint x="1420" y="90" />
              <mxPoint x="1420" y="240" />
            </Array>
          </mxGeometry>
        </mxCell>
        <mxCell id="7VQik0wUS9VQWqGono5E-40" style="edgeStyle=orthogonalEdgeStyle;rounded=0;orthogonalLoop=1;jettySize=auto;html=1;endArrow=block;endFill=1;exitX=1;exitY=0.5;exitDx=0;exitDy=0;" edge="1" parent="WIyWlLk6GJQsqaUBKTNV-1" source="7VQik0wUS9VQWqGono5E-33" target="7VQik0wUS9VQWqGono5E-20">
          <mxGeometry relative="1" as="geometry">
            <Array as="points">
              <mxPoint x="1420" y="90" />
              <mxPoint x="1420" y="170" />
            </Array>
            <mxPoint x="1386" y="250" as="sourcePoint" />
          </mxGeometry>
        </mxCell>
        <mxCell id="7VQik0wUS9VQWqGono5E-53" value="Other Services" style="ellipse;whiteSpace=wrap;html=1;dashed=1;fillColor=#f5f5f5;fontColor=#333333;strokeColor=#666666;" vertex="1" parent="WIyWlLk6GJQsqaUBKTNV-1">
          <mxGeometry x="1041" y="360" width="90" height="50" as="geometry" />
        </mxCell>
        <mxCell id="7VQik0wUS9VQWqGono5E-54" style="edgeStyle=orthogonalEdgeStyle;rounded=0;orthogonalLoop=1;jettySize=auto;html=1;endArrow=block;endFill=1;" edge="1" parent="WIyWlLk6GJQsqaUBKTNV-1" source="7VQik0wUS9VQWqGono5E-56" target="7VQik0wUS9VQWqGono5E-33">
          <mxGeometry relative="1" as="geometry" />
        </mxCell>
        <mxCell id="7VQik0wUS9VQWqGono5E-56" value="Gateway" style="html=1;whiteSpace=wrap;fillColor=#fad7ac;strokeColor=#b46504;strokeWidth=2;" vertex="1" parent="WIyWlLk6GJQsqaUBKTNV-1">
          <mxGeometry x="1026" y="60" width="120" height="60" as="geometry" />
        </mxCell>
        <mxCell id="7VQik0wUS9VQWqGono5E-57" value="&lt;div style=&quot;text-align: justify;&quot;&gt;&lt;span style=&quot;background-color: initial;&quot;&gt;All services can communicate&amp;nbsp;&lt;/span&gt;&lt;/div&gt;&lt;div style=&quot;text-align: justify;&quot;&gt;&lt;span style=&quot;background-color: initial;&quot;&gt;with each other,&amp;nbsp;&lt;/span&gt;&lt;span style=&quot;background-color: initial;&quot;&gt;but we want to keep&amp;nbsp;&lt;/span&gt;&lt;/div&gt;&lt;div style=&quot;text-align: justify;&quot;&gt;&lt;span style=&quot;background-color: initial;&quot;&gt;the communication to the minimum.&lt;/span&gt;&lt;/div&gt;" style="text;html=1;align=center;verticalAlign=middle;resizable=0;points=[];autosize=1;strokeColor=none;fillColor=none;fontStyle=2" vertex="1" parent="WIyWlLk6GJQsqaUBKTNV-1">
          <mxGeometry x="861" y="240" width="220" height="60" as="geometry" />
        </mxCell>
        <mxCell id="7VQik0wUS9VQWqGono5E-58" style="edgeStyle=orthogonalEdgeStyle;rounded=0;orthogonalLoop=1;jettySize=auto;html=1;dashed=1;endArrow=block;endFill=1;entryX=0;entryY=0.5;entryDx=0;entryDy=0;" edge="1" parent="WIyWlLk6GJQsqaUBKTNV-1" target="7VQik0wUS9VQWqGono5E-56">
          <mxGeometry relative="1" as="geometry">
            <Array as="points">
              <mxPoint x="860" y="90" />
            </Array>
            <mxPoint x="860" y="90" as="sourcePoint" />
            <mxPoint x="1026" y="90" as="targetPoint" />
          </mxGeometry>
        </mxCell>
        <mxCell id="7VQik0wUS9VQWqGono5E-59" value="&lt;div style=&quot;border-color: var(--border-color); color: rgb(0, 0, 0); font-family: Helvetica; font-size: 12px; font-style: italic; font-variant-ligatures: normal; font-variant-caps: normal; font-weight: 400; letter-spacing: normal; orphans: 2; text-indent: 0px; text-transform: none; widows: 2; word-spacing: 0px; -webkit-text-stroke-width: 0px; background-color: rgb(251, 251, 251); text-decoration-thickness: initial; text-decoration-style: initial; text-decoration-color: initial; text-align: justify;&quot;&gt;network connection&lt;/div&gt;" style="text;whiteSpace=wrap;html=1;" vertex="1" parent="WIyWlLk6GJQsqaUBKTNV-1">
          <mxGeometry x="856" y="60" width="230" height="70" as="geometry" />
        </mxCell>
      </root>
    </mxGraphModel>
  </diagram>
</mxfile>
